<svg width="60" height="60" viewBox="0 0 60 60" fill="none" xmlns="http://www.w3.org/2000/svg">
<circle cx="30" cy="30" r="29" fill="white" stroke="white" stroke-width="2"/>
<path d="M30 30C31.3845 30 32.7378 29.5895 33.889 28.8203C35.0401 28.0511 35.9373 26.9579 36.4672 25.6788C36.997 24.3997 37.1356 22.9922 36.8655 21.6344C36.5954 20.2765 35.9287 19.0292 34.9497 18.0503C33.9708 17.0713 32.7235 16.4046 31.3656 16.1345C30.0078 15.8644 28.6003 16.003 27.3212 16.5328C26.0421 17.0627 24.9489 17.9599 24.1797 19.111C23.4105 20.2622 23 21.6155 23 23C23 24.8565 23.7375 26.637 25.0503 27.9498C26.363 29.2625 28.1435 30 30 30ZM30 32C25.6613 32 17 34.68 17 40V44H43V40C43 34.68 34.3387 32 30 32Z" fill="#FF0000"/>
</svg>
